# xmcd
#
# Track frame offsets:
#   150
#   25513
#   48406
#   65988
#   91375
#   115482
#   131558
#   150057
#   168018
#   190617
#
# Disc length: 2906 seconds
#
# Revision: 0
# Processed by: cddbd v1.5.2PL0 Copyright (c) Steve Scherf et al.
# Submitted via: GXTranscoder 2.0.1939
#
DISCID=750b580a
DTITLE=Terry Callier - Hidden Conversations
DYEAR=2009
DGENRE=R and B
TTITLE0=Wings
TTITLE1=Sunset Boulevard
TTITLE2=Hidden Conversations
TTITLE3=The Hood I Left Behind
TTITLE4=Once I Dreamed Of Heaven
TTITLE5=Fool Em I Fool R U
TTITLE6=Rice And Beans - Grace
TTITLE7=Jessie And Alice
TTITLE8=John Lee Hooker
TTITLE9=Live With Me
EXTD=
EXTT0=
EXTT1=
EXTT2=
EXTT3=
EXTT4=
EXTT5=
EXTT6=
EXTT7=
EXTT8=
EXTT9=
PLAYORDER=
